<svg width="324" height="620" viewBox="0 0 324 620" fill="none" xmlns="http://www.w3.org/2000/svg">
<rect width="324" height="620" fill="#1E1E1E"/>
<rect width="324" height="154" fill="#181818"/>
<path d="M27 109.351V44.6494V42C27 35.3726 32.3726 30 39 30H41.6493H69.6595H70.7757C74.0084 30 77.1044 31.3043 79.3626 33.6176L80.1422 34.4162L96.6905 51.3681L97.444 52.14C99.6322 54.3816 100.857 57.3899 100.857 60.5224V61.6012V109.351V112C100.857 118.627 95.4845 124 88.8571 124H86.2078H41.6493H39C32.3726 124 27 118.627 27 112V109.351Z" fill="#CFD490"/>
<path d="M60.5516 81.8405V85.801C61.4536 87.1211 63.7086 88.9693 65.5126 85.801V81.8405C64.7609 80.5204 62.7164 78.6722 60.5516 81.8405Z" fill="#1E1E1E"/>
<path fill-rule="evenodd" clip-rule="evenodd" d="M46.5707 72.1595V92.4017C46.4204 93.7218 46.5707 95.9221 49.7277 95.9221H76.3365C77.3889 95.7754 79.4935 94.954 79.4935 92.8417V72.1595C79.3432 71.1327 78.5013 69.0791 76.3365 69.0791H74.2344H68.6696H57.8456H51.9827H49.7277C48.6753 69.0791 46.5707 69.6952 46.5707 72.1595ZM51.9827 90.2015V74.3597H73.6305V90.2015H51.9827Z" fill="#1E1E1E"/>
<path d="M62.8066 58.0779C54.1474 58.0779 51.9827 65.4121 51.9827 69.0791H57.8456C57.6953 67.3189 58.477 63.7986 62.8066 63.7986C67.1362 63.7986 68.5192 67.3189 68.6696 69.0791H74.2344C74.0331 65.4121 71.4658 58.0779 62.8066 58.0779Z" fill="#1E1E1E"/>
<path d="M124.773 88.7525C122.456 88.7525 120.373 88.2245 118.525 87.1685C116.677 86.0831 115.211 84.6165 114.125 82.7685C113.069 80.9205 112.541 78.8231 112.541 76.4765C112.541 74.1591 113.055 72.0765 114.081 70.2285C115.137 68.3805 116.56 66.9285 118.349 65.8725C120.139 64.7871 122.163 64.2445 124.421 64.2445C126.387 64.2445 128.161 64.6698 129.745 65.5205C131.329 66.3418 132.605 67.4418 133.573 68.8205V55.8845C133.573 55.3565 133.735 54.9458 134.057 54.6525C134.38 54.3298 134.791 54.1685 135.289 54.1685C135.788 54.1685 136.199 54.3298 136.521 54.6525C136.844 54.9458 137.005 55.3565 137.005 55.8845V76.6525C136.947 78.9405 136.375 81.0085 135.289 82.8565C134.233 84.6751 132.781 86.1125 130.933 87.1685C129.115 88.2245 127.061 88.7525 124.773 88.7525ZM124.773 85.6725C126.475 85.6725 127.985 85.2765 129.305 84.4845C130.655 83.6631 131.711 82.5631 132.473 81.1845C133.265 79.8058 133.661 78.2365 133.661 76.4765C133.661 74.7458 133.265 73.1911 132.473 71.8125C131.711 70.4045 130.655 69.3045 129.305 68.5125C127.985 67.7205 126.475 67.3245 124.773 67.3245C123.101 67.3245 121.591 67.7205 120.241 68.5125C118.892 69.3045 117.821 70.4045 117.029 71.8125C116.237 73.1911 115.841 74.7458 115.841 76.4765C115.841 78.2365 116.237 79.8058 117.029 81.1845C117.821 82.5631 118.892 83.6631 120.241 84.4845C121.591 85.2765 123.101 85.6725 124.773 85.6725ZM156.763 88.7525C154.416 88.7525 152.319 88.2245 150.471 87.1685C148.623 86.1125 147.171 84.6605 146.115 82.8125C145.059 80.9645 144.531 78.8671 144.531 76.5205C144.531 74.1445 145.059 72.0325 146.115 70.1845C147.171 68.3365 148.623 66.8845 150.471 65.8285C152.319 64.7725 154.416 64.2445 156.763 64.2445C159.109 64.2445 161.192 64.7725 163.011 65.8285C164.859 66.8845 166.311 68.3365 167.367 70.1845C168.423 72.0325 168.965 74.1445 168.995 76.5205C168.995 78.8671 168.452 80.9645 167.367 82.8125C166.311 84.6605 164.859 86.1125 163.011 87.1685C161.192 88.2245 159.109 88.7525 156.763 88.7525ZM156.763 85.6725C158.464 85.6725 159.989 85.2765 161.339 84.4845C162.688 83.6925 163.744 82.6071 164.507 81.2285C165.269 79.8498 165.651 78.2805 165.651 76.5205C165.651 74.7605 165.269 73.1911 164.507 71.8125C163.744 70.4045 162.688 69.3045 161.339 68.5125C159.989 67.7205 158.464 67.3245 156.763 67.3245C155.061 67.3245 153.536 67.7205 152.187 68.5125C150.837 69.3045 149.767 70.4045 148.975 71.8125C148.212 73.1911 147.831 74.7605 147.831 76.5205C147.831 78.2805 148.212 79.8498 148.975 81.2285C149.767 82.6071 150.837 83.6925 152.187 84.4845C153.536 85.2765 155.061 85.6725 156.763 85.6725ZM187.2 88.7525C184.883 88.7525 182.815 88.2245 180.996 87.1685C179.207 86.0831 177.784 84.6165 176.728 82.7685C175.701 80.9205 175.188 78.8378 175.188 76.5205C175.188 74.1738 175.687 72.0765 176.684 70.2285C177.681 68.3805 179.045 66.9285 180.776 65.8725C182.507 64.7871 184.501 64.2445 186.76 64.2445C188.549 64.2445 190.192 64.5965 191.688 65.3005C193.213 66.0045 194.548 67.0605 195.692 68.4685C196.015 68.8205 196.132 69.2018 196.044 69.6125C195.956 69.9938 195.707 70.3311 195.296 70.6245C194.973 70.8591 194.607 70.9471 194.196 70.8885C193.815 70.8005 193.477 70.5805 193.184 70.2285C191.483 68.2925 189.341 67.3245 186.76 67.3245C185.117 67.3245 183.665 67.7205 182.404 68.5125C181.172 69.3045 180.204 70.3898 179.5 71.7685C178.825 73.1471 178.488 74.7311 178.488 76.5205C178.488 78.2805 178.855 79.8498 179.588 81.2285C180.321 82.6071 181.348 83.6925 182.668 84.4845C183.988 85.2765 185.499 85.6725 187.2 85.6725C188.344 85.6725 189.385 85.5258 190.324 85.2325C191.292 84.9098 192.143 84.4258 192.876 83.7805C193.228 83.4871 193.595 83.3258 193.976 83.2965C194.357 83.2671 194.709 83.3845 195.032 83.6485C195.384 83.9711 195.575 84.3378 195.604 84.7485C195.663 85.1591 195.531 85.5111 195.208 85.8045C193.067 87.7698 190.397 88.7525 187.2 88.7525ZM214.468 88.7525C212.121 88.7525 210.024 88.2245 208.176 87.1685C206.328 86.1125 204.876 84.6605 203.82 82.8125C202.764 80.9645 202.236 78.8671 202.236 76.5205C202.236 74.1445 202.764 72.0325 203.82 70.1845C204.876 68.3365 206.328 66.8845 208.176 65.8285C210.024 64.7725 212.121 64.2445 214.468 64.2445C216.815 64.2445 218.897 64.7725 220.716 65.8285C222.564 66.8845 224.016 68.3365 225.072 70.1845C226.128 72.0325 226.671 74.1445 226.7 76.5205C226.7 78.8671 226.157 80.9645 225.072 82.8125C224.016 84.6605 222.564 86.1125 220.716 87.1685C218.897 88.2245 216.815 88.7525 214.468 88.7525ZM214.468 85.6725C216.169 85.6725 217.695 85.2765 219.044 84.4845C220.393 83.6925 221.449 82.6071 222.212 81.2285C222.975 79.8498 223.356 78.2805 223.356 76.5205C223.356 74.7605 222.975 73.1911 222.212 71.8125C221.449 70.4045 220.393 69.3045 219.044 68.5125C217.695 67.7205 216.169 67.3245 214.468 67.3245C212.767 67.3245 211.241 67.7205 209.892 68.5125C208.543 69.3045 207.472 70.4045 206.68 71.8125C205.917 73.1911 205.536 74.7605 205.536 76.5205C205.536 78.2805 205.917 79.8498 206.68 81.2285C207.472 82.6071 208.543 83.6925 209.892 84.4845C211.241 85.2765 212.767 85.6725 214.468 85.6725ZM266.685 88.5325C266.187 88.5325 265.776 88.3858 265.453 88.0925C265.131 87.7698 264.969 87.3591 264.969 86.8605V74.1885C264.969 72.1058 264.427 70.4631 263.341 69.2605C262.256 68.0285 260.863 67.4125 259.161 67.4125C257.343 67.4125 255.847 68.0285 254.673 69.2605C253.529 70.4631 252.972 72.0765 253.001 74.1005H249.965C249.995 72.1351 250.42 70.4045 251.241 68.9085C252.063 67.4125 253.192 66.2538 254.629 65.4325C256.067 64.6111 257.695 64.2005 259.513 64.2005C261.244 64.2005 262.769 64.6111 264.089 65.4325C265.439 66.2538 266.48 67.4125 267.213 68.9085C267.976 70.4045 268.357 72.1645 268.357 74.1885V86.8605C268.357 87.3591 268.196 87.7698 267.873 88.0925C267.58 88.3858 267.184 88.5325 266.685 88.5325ZM235.885 88.5325C235.357 88.5325 234.932 88.3858 234.609 88.0925C234.316 87.7698 234.169 87.3591 234.169 86.8605V66.1805C234.169 65.6818 234.316 65.2711 234.609 64.9485C234.932 64.6258 235.357 64.4645 235.885 64.4645C236.384 64.4645 236.78 64.6258 237.073 64.9485C237.396 65.2711 237.557 65.6818 237.557 66.1805V86.8605C237.557 87.3591 237.396 87.7698 237.073 88.0925C236.78 88.3858 236.384 88.5325 235.885 88.5325ZM251.329 88.5325C250.831 88.5325 250.42 88.3858 250.097 88.0925C249.775 87.7698 249.613 87.3591 249.613 86.8605V74.1885C249.613 72.1058 249.071 70.4631 247.985 69.2605C246.9 68.0285 245.507 67.4125 243.805 67.4125C241.987 67.4125 240.491 68.0138 239.317 69.2165C238.144 70.3898 237.557 71.9298 237.557 73.8365H235.137C235.196 71.9591 235.607 70.3018 236.369 68.8645C237.161 67.3978 238.232 66.2538 239.581 65.4325C240.931 64.6111 242.456 64.2005 244.157 64.2005C245.888 64.2005 247.413 64.6111 248.733 65.4325C250.083 66.2538 251.124 67.4125 251.857 68.9085C252.62 70.4045 253.001 72.1645 253.001 74.1885V86.8605C253.001 87.3591 252.84 87.7698 252.517 88.0925C252.224 88.3858 251.828 88.5325 251.329 88.5325ZM279.149 88.5325C278.621 88.5325 278.196 88.3858 277.873 88.0925C277.58 87.7698 277.433 87.3445 277.433 86.8165V66.1805C277.433 65.6525 277.58 65.2418 277.873 64.9485C278.196 64.6258 278.621 64.4645 279.149 64.4645C279.648 64.4645 280.044 64.6258 280.337 64.9485C280.66 65.2418 280.821 65.6525 280.821 66.1805V86.8165C280.821 87.3445 280.66 87.7698 280.337 88.0925C280.044 88.3858 279.648 88.5325 279.149 88.5325ZM279.105 59.8885C278.46 59.8885 277.902 59.6538 277.433 59.1845C276.964 58.7151 276.729 58.1431 276.729 57.4685C276.729 56.7351 276.964 56.1631 277.433 55.7525C277.932 55.3125 278.504 55.0925 279.149 55.0925C279.765 55.0925 280.308 55.3125 280.777 55.7525C281.276 56.1631 281.525 56.7351 281.525 57.4685C281.525 58.1431 281.29 58.7151 280.821 59.1845C280.352 59.6538 279.78 59.8885 279.105 59.8885Z" fill="#CFD490"/>
<rect width="324" height="154" transform="translate(0 466)" fill="#181818"/>
<path d="M125 575.351V510.649V508C125 501.373 130.373 496 137 496H139.649H167.66H168.776C172.008 496 175.104 497.304 177.363 499.618L178.142 500.416L194.69 517.368L195.444 518.14C197.632 520.382 198.857 523.39 198.857 526.522V527.601V575.351V578C198.857 584.627 193.485 590 186.857 590H184.208H139.649H137C130.373 590 125 584.627 125 578V575.351Z" fill="#CFD490"/>
<path d="M158.552 547.841V551.801C159.454 553.121 161.709 554.969 163.513 551.801V547.841C162.761 546.52 160.716 544.672 158.552 547.841Z" fill="#1E1E1E"/>
<path fill-rule="evenodd" clip-rule="evenodd" d="M144.571 538.159V558.402C144.42 559.722 144.571 561.922 147.728 561.922H174.337C175.389 561.775 177.494 560.954 177.494 558.842V538.159C177.343 537.133 176.501 535.079 174.337 535.079H172.234H166.67H155.846H149.983H147.728C146.675 535.079 144.571 535.695 144.571 538.159ZM149.983 556.201V540.36H171.631V556.201H149.983Z" fill="#1E1E1E"/>
<path d="M160.807 524.078C152.147 524.078 149.983 531.412 149.983 535.079H155.846C155.695 533.319 156.477 529.799 160.807 529.799C165.136 529.799 166.519 533.319 166.67 535.079H172.234C172.033 531.412 169.466 524.078 160.807 524.078Z" fill="#1E1E1E"/>
<rect width="324" height="154" transform="translate(0 233)" fill="#181818"/>
<path d="M83.916 321.22C81.5987 321.22 79.516 320.692 77.668 319.636C75.82 318.551 74.3533 317.084 73.268 315.236C72.212 313.388 71.684 311.291 71.684 308.944C71.684 306.627 72.1973 304.544 73.224 302.696C74.28 300.848 75.7027 299.396 77.492 298.34C79.2813 297.255 81.3053 296.712 83.564 296.712C85.5293 296.712 87.304 297.137 88.888 297.988C90.472 298.809 91.748 299.909 92.716 301.288V288.352C92.716 287.824 92.8773 287.413 93.2 287.12C93.5227 286.797 93.9333 286.636 94.432 286.636C94.9307 286.636 95.3413 286.797 95.664 287.12C95.9867 287.413 96.148 287.824 96.148 288.352V309.12C96.0893 311.408 95.5173 313.476 94.432 315.324C93.376 317.143 91.924 318.58 90.076 319.636C88.2573 320.692 86.204 321.22 83.916 321.22ZM83.916 318.14C85.6173 318.14 87.128 317.744 88.448 316.952C89.7973 316.131 90.8533 315.031 91.616 313.652C92.408 312.273 92.804 310.704 92.804 308.944C92.804 307.213 92.408 305.659 91.616 304.28C90.8533 302.872 89.7973 301.772 88.448 300.98C87.128 300.188 85.6173 299.792 83.916 299.792C82.244 299.792 80.7333 300.188 79.384 300.98C78.0347 301.772 76.964 302.872 76.172 304.28C75.38 305.659 74.984 307.213 74.984 308.944C74.984 310.704 75.38 312.273 76.172 313.652C76.964 315.031 78.0347 316.131 79.384 316.952C80.7333 317.744 82.244 318.14 83.916 318.14ZM115.905 321.22C113.559 321.22 111.461 320.692 109.613 319.636C107.765 318.58 106.313 317.128 105.257 315.28C104.201 313.432 103.673 311.335 103.673 308.988C103.673 306.612 104.201 304.5 105.257 302.652C106.313 300.804 107.765 299.352 109.613 298.296C111.461 297.24 113.559 296.712 115.905 296.712C118.252 296.712 120.335 297.24 122.153 298.296C124.001 299.352 125.453 300.804 126.509 302.652C127.565 304.5 128.108 306.612 128.137 308.988C128.137 311.335 127.595 313.432 126.509 315.28C125.453 317.128 124.001 318.58 122.153 319.636C120.335 320.692 118.252 321.22 115.905 321.22ZM115.905 318.14C117.607 318.14 119.132 317.744 120.481 316.952C121.831 316.16 122.887 315.075 123.649 313.696C124.412 312.317 124.793 310.748 124.793 308.988C124.793 307.228 124.412 305.659 123.649 304.28C122.887 302.872 121.831 301.772 120.481 300.98C119.132 300.188 117.607 299.792 115.905 299.792C114.204 299.792 112.679 300.188 111.329 300.98C109.98 301.772 108.909 302.872 108.117 304.28C107.355 305.659 106.973 307.228 106.973 308.988C106.973 310.748 107.355 312.317 108.117 313.696C108.909 315.075 109.98 316.16 111.329 316.952C112.679 317.744 114.204 318.14 115.905 318.14ZM146.343 321.22C144.025 321.22 141.957 320.692 140.139 319.636C138.349 318.551 136.927 317.084 135.871 315.236C134.844 313.388 134.331 311.305 134.331 308.988C134.331 306.641 134.829 304.544 135.827 302.696C136.824 300.848 138.188 299.396 139.919 298.34C141.649 297.255 143.644 296.712 145.903 296.712C147.692 296.712 149.335 297.064 150.831 297.768C152.356 298.472 153.691 299.528 154.835 300.936C155.157 301.288 155.275 301.669 155.187 302.08C155.099 302.461 154.849 302.799 154.439 303.092C154.116 303.327 153.749 303.415 153.339 303.356C152.957 303.268 152.62 303.048 152.327 302.696C150.625 300.76 148.484 299.792 145.903 299.792C144.26 299.792 142.808 300.188 141.547 300.98C140.315 301.772 139.347 302.857 138.643 304.236C137.968 305.615 137.631 307.199 137.631 308.988C137.631 310.748 137.997 312.317 138.731 313.696C139.464 315.075 140.491 316.16 141.811 316.952C143.131 317.744 144.641 318.14 146.343 318.14C147.487 318.14 148.528 317.993 149.467 317.7C150.435 317.377 151.285 316.893 152.019 316.248C152.371 315.955 152.737 315.793 153.119 315.764C153.5 315.735 153.852 315.852 154.175 316.116C154.527 316.439 154.717 316.805 154.747 317.216C154.805 317.627 154.673 317.979 154.351 318.272C152.209 320.237 149.54 321.22 146.343 321.22ZM173.611 321.22C171.264 321.22 169.167 320.692 167.319 319.636C165.471 318.58 164.019 317.128 162.963 315.28C161.907 313.432 161.379 311.335 161.379 308.988C161.379 306.612 161.907 304.5 162.963 302.652C164.019 300.804 165.471 299.352 167.319 298.296C169.167 297.24 171.264 296.712 173.611 296.712C175.957 296.712 178.04 297.24 179.859 298.296C181.707 299.352 183.159 300.804 184.215 302.652C185.271 304.5 185.813 306.612 185.843 308.988C185.843 311.335 185.3 313.432 184.215 315.28C183.159 317.128 181.707 318.58 179.859 319.636C178.04 320.692 175.957 321.22 173.611 321.22ZM173.611 318.14C175.312 318.14 176.837 317.744 178.187 316.952C179.536 316.16 180.592 315.075 181.355 313.696C182.117 312.317 182.499 310.748 182.499 308.988C182.499 307.228 182.117 305.659 181.355 304.28C180.592 302.872 179.536 301.772 178.187 300.98C176.837 300.188 175.312 299.792 173.611 299.792C171.909 299.792 170.384 300.188 169.035 300.98C167.685 301.772 166.615 302.872 165.823 304.28C165.06 305.659 164.679 307.228 164.679 308.988C164.679 310.748 165.06 312.317 165.823 313.696C166.615 315.075 167.685 316.16 169.035 316.952C170.384 317.744 171.909 318.14 173.611 318.14ZM225.828 321C225.329 321 224.919 320.853 224.596 320.56C224.273 320.237 224.112 319.827 224.112 319.328V306.656C224.112 304.573 223.569 302.931 222.484 301.728C221.399 300.496 220.005 299.88 218.304 299.88C216.485 299.88 214.989 300.496 213.816 301.728C212.672 302.931 212.115 304.544 212.144 306.568H209.108C209.137 304.603 209.563 302.872 210.384 301.376C211.205 299.88 212.335 298.721 213.772 297.9C215.209 297.079 216.837 296.668 218.656 296.668C220.387 296.668 221.912 297.079 223.232 297.9C224.581 298.721 225.623 299.88 226.356 301.376C227.119 302.872 227.5 304.632 227.5 306.656V319.328C227.5 319.827 227.339 320.237 227.016 320.56C226.723 320.853 226.327 321 225.828 321ZM195.028 321C194.5 321 194.075 320.853 193.752 320.56C193.459 320.237 193.312 319.827 193.312 319.328V298.648C193.312 298.149 193.459 297.739 193.752 297.416C194.075 297.093 194.5 296.932 195.028 296.932C195.527 296.932 195.923 297.093 196.216 297.416C196.539 297.739 196.7 298.149 196.7 298.648V319.328C196.7 319.827 196.539 320.237 196.216 320.56C195.923 320.853 195.527 321 195.028 321ZM210.472 321C209.973 321 209.563 320.853 209.24 320.56C208.917 320.237 208.756 319.827 208.756 319.328V306.656C208.756 304.573 208.213 302.931 207.128 301.728C206.043 300.496 204.649 299.88 202.948 299.88C201.129 299.88 199.633 300.481 198.46 301.684C197.287 302.857 196.7 304.397 196.7 306.304H194.28C194.339 304.427 194.749 302.769 195.512 301.332C196.304 299.865 197.375 298.721 198.724 297.9C200.073 297.079 201.599 296.668 203.3 296.668C205.031 296.668 206.556 297.079 207.876 297.9C209.225 298.721 210.267 299.88 211 301.376C211.763 302.872 212.144 304.632 212.144 306.656V319.328C212.144 319.827 211.983 320.237 211.66 320.56C211.367 320.853 210.971 321 210.472 321ZM238.292 321C237.764 321 237.338 320.853 237.016 320.56C236.722 320.237 236.576 319.812 236.576 319.284V298.648C236.576 298.12 236.722 297.709 237.016 297.416C237.338 297.093 237.764 296.932 238.292 296.932C238.79 296.932 239.186 297.093 239.48 297.416C239.802 297.709 239.964 298.12 239.964 298.648V319.284C239.964 319.812 239.802 320.237 239.48 320.56C239.186 320.853 238.79 321 238.292 321ZM238.248 292.356C237.602 292.356 237.045 292.121 236.576 291.652C236.106 291.183 235.872 290.611 235.872 289.936C235.872 289.203 236.106 288.631 236.576 288.22C237.074 287.78 237.646 287.56 238.292 287.56C238.908 287.56 239.45 287.78 239.92 288.22C240.418 288.631 240.668 289.203 240.668 289.936C240.668 290.611 240.433 291.183 239.964 291.652C239.494 292.121 238.922 292.356 238.248 292.356Z" fill="#CFD490"/>
</svg>
