<svg width="187" height="40" viewBox="0 0 187 40" fill="none" xmlns="http://www.w3.org/2000/svg">
<path d="M14.916 39.22C12.5987 39.22 10.516 38.692 8.668 37.636C6.82 36.5507 5.35333 35.084 4.268 33.236C3.212 31.388 2.684 29.2907 2.684 26.944C2.684 24.6267 3.19733 22.544 4.224 20.696C5.28 18.848 6.70267 17.396 8.492 16.34C10.2813 15.2547 12.3053 14.712 14.564 14.712C16.5293 14.712 18.304 15.1373 19.888 15.988C21.472 16.8093 22.748 17.9093 23.716 19.288V6.352C23.716 5.824 23.8773 5.41333 24.2 5.12C24.5227 4.79733 24.9333 4.636 25.432 4.636C25.9307 4.636 26.3413 4.79733 26.664 5.12C26.9867 5.41333 27.148 5.824 27.148 6.352V27.12C27.0893 29.408 26.5173 31.476 25.432 33.324C24.376 35.1427 22.924 36.58 21.076 37.636C19.2573 38.692 17.204 39.22 14.916 39.22ZM14.916 36.14C16.6173 36.14 18.128 35.744 19.448 34.952C20.7973 34.1307 21.8533 33.0307 22.616 31.652C23.408 30.2733 23.804 28.704 23.804 26.944C23.804 25.2133 23.408 23.6587 22.616 22.28C21.8533 20.872 20.7973 19.772 19.448 18.98C18.128 18.188 16.6173 17.792 14.916 17.792C13.244 17.792 11.7333 18.188 10.384 18.98C9.03467 19.772 7.964 20.872 7.172 22.28C6.38 23.6587 5.984 25.2133 5.984 26.944C5.984 28.704 6.38 30.2733 7.172 31.652C7.964 33.0307 9.03467 34.1307 10.384 34.952C11.7333 35.744 13.244 36.14 14.916 36.14ZM46.9054 39.22C44.5587 39.22 42.4614 38.692 40.6134 37.636C38.7654 36.58 37.3134 35.128 36.2574 33.28C35.2014 31.432 34.6734 29.3347 34.6734 26.988C34.6734 24.612 35.2014 22.5 36.2574 20.652C37.3134 18.804 38.7654 17.352 40.6134 16.296C42.4614 15.24 44.5587 14.712 46.9054 14.712C49.252 14.712 51.3347 15.24 53.1534 16.296C55.0014 17.352 56.4534 18.804 57.5094 20.652C58.5654 22.5 59.108 24.612 59.1374 26.988C59.1374 29.3347 58.5947 31.432 57.5094 33.28C56.4534 35.128 55.0014 36.58 53.1534 37.636C51.3347 38.692 49.252 39.22 46.9054 39.22ZM46.9054 36.14C48.6067 36.14 50.132 35.744 51.4814 34.952C52.8307 34.16 53.8867 33.0747 54.6494 31.696C55.412 30.3173 55.7934 28.748 55.7934 26.988C55.7934 25.228 55.412 23.6587 54.6494 22.28C53.8867 20.872 52.8307 19.772 51.4814 18.98C50.132 18.188 48.6067 17.792 46.9054 17.792C45.204 17.792 43.6787 18.188 42.3294 18.98C40.98 19.772 39.9094 20.872 39.1174 22.28C38.3547 23.6587 37.9734 25.228 37.9734 26.988C37.9734 28.748 38.3547 30.3173 39.1174 31.696C39.9094 33.0747 40.98 34.16 42.3294 34.952C43.6787 35.744 45.204 36.14 46.9054 36.14ZM77.3427 39.22C75.0254 39.22 72.9574 38.692 71.1387 37.636C69.3494 36.5507 67.9267 35.084 66.8707 33.236C65.8441 31.388 65.3307 29.3053 65.3307 26.988C65.3307 24.6413 65.8294 22.544 66.8267 20.696C67.8241 18.848 69.1881 17.396 70.9187 16.34C72.6494 15.2547 74.6441 14.712 76.9027 14.712C78.6921 14.712 80.3347 15.064 81.8307 15.768C83.3561 16.472 84.6907 17.528 85.8347 18.936C86.1574 19.288 86.2747 19.6693 86.1867 20.08C86.0987 20.4613 85.8494 20.7987 85.4387 21.092C85.1161 21.3267 84.7494 21.4147 84.3387 21.356C83.9574 21.268 83.6201 21.048 83.3267 20.696C81.6254 18.76 79.4841 17.792 76.9027 17.792C75.2601 17.792 73.8081 18.188 72.5467 18.98C71.3147 19.772 70.3467 20.8573 69.6427 22.236C68.9681 23.6147 68.6307 25.1987 68.6307 26.988C68.6307 28.748 68.9974 30.3173 69.7307 31.696C70.4641 33.0747 71.4907 34.16 72.8107 34.952C74.1307 35.744 75.6414 36.14 77.3427 36.14C78.4867 36.14 79.5281 35.9933 80.4667 35.7C81.4347 35.3773 82.2854 34.8933 83.0187 34.248C83.3707 33.9547 83.7374 33.7933 84.1187 33.764C84.5001 33.7347 84.8521 33.852 85.1747 34.116C85.5267 34.4387 85.7174 34.8053 85.7467 35.216C85.8054 35.6267 85.6734 35.9787 85.3507 36.272C83.2094 38.2373 80.5401 39.22 77.3427 39.22ZM104.611 39.22C102.264 39.22 100.167 38.692 98.3187 37.636C96.4707 36.58 95.0187 35.128 93.9627 33.28C92.9067 31.432 92.3787 29.3347 92.3787 26.988C92.3787 24.612 92.9067 22.5 93.9627 20.652C95.0187 18.804 96.4707 17.352 98.3187 16.296C100.167 15.24 102.264 14.712 104.611 14.712C106.957 14.712 109.04 15.24 110.859 16.296C112.707 17.352 114.159 18.804 115.215 20.652C116.271 22.5 116.813 24.612 116.843 26.988C116.843 29.3347 116.3 31.432 115.215 33.28C114.159 35.128 112.707 36.58 110.859 37.636C109.04 38.692 106.957 39.22 104.611 39.22ZM104.611 36.14C106.312 36.14 107.837 35.744 109.187 34.952C110.536 34.16 111.592 33.0747 112.355 31.696C113.117 30.3173 113.499 28.748 113.499 26.988C113.499 25.228 113.117 23.6587 112.355 22.28C111.592 20.872 110.536 19.772 109.187 18.98C107.837 18.188 106.312 17.792 104.611 17.792C102.909 17.792 101.384 18.188 100.035 18.98C98.6854 19.772 97.6147 20.872 96.8227 22.28C96.06 23.6587 95.6787 25.228 95.6787 26.988C95.6787 28.748 96.06 30.3173 96.8227 31.696C97.6147 33.0747 98.6854 34.16 100.035 34.952C101.384 35.744 102.909 36.14 104.611 36.14ZM156.828 39C156.329 39 155.919 38.8533 155.596 38.56C155.273 38.2373 155.112 37.8267 155.112 37.328V24.656C155.112 22.5733 154.569 20.9307 153.484 19.728C152.399 18.496 151.005 17.88 149.304 17.88C147.485 17.88 145.989 18.496 144.816 19.728C143.672 20.9307 143.115 22.544 143.144 24.568H140.108C140.137 22.6027 140.563 20.872 141.384 19.376C142.205 17.88 143.335 16.7213 144.772 15.9C146.209 15.0787 147.837 14.668 149.656 14.668C151.387 14.668 152.912 15.0787 154.232 15.9C155.581 16.7213 156.623 17.88 157.356 19.376C158.119 20.872 158.5 22.632 158.5 24.656V37.328C158.5 37.8267 158.339 38.2373 158.016 38.56C157.723 38.8533 157.327 39 156.828 39ZM126.028 39C125.5 39 125.075 38.8533 124.752 38.56C124.459 38.2373 124.312 37.8267 124.312 37.328V16.648C124.312 16.1493 124.459 15.7387 124.752 15.416C125.075 15.0933 125.5 14.932 126.028 14.932C126.527 14.932 126.923 15.0933 127.216 15.416C127.539 15.7387 127.7 16.1493 127.7 16.648V37.328C127.7 37.8267 127.539 38.2373 127.216 38.56C126.923 38.8533 126.527 39 126.028 39ZM141.472 39C140.973 39 140.563 38.8533 140.24 38.56C139.917 38.2373 139.756 37.8267 139.756 37.328V24.656C139.756 22.5733 139.213 20.9307 138.128 19.728C137.043 18.496 135.649 17.88 133.948 17.88C132.129 17.88 130.633 18.4813 129.46 19.684C128.287 20.8573 127.7 22.3973 127.7 24.304H125.28C125.339 22.4267 125.749 20.7693 126.512 19.332C127.304 17.8653 128.375 16.7213 129.724 15.9C131.073 15.0787 132.599 14.668 134.3 14.668C136.031 14.668 137.556 15.0787 138.876 15.9C140.225 16.7213 141.267 17.88 142 19.376C142.763 20.872 143.144 22.632 143.144 24.656V37.328C143.144 37.8267 142.983 38.2373 142.66 38.56C142.367 38.8533 141.971 39 141.472 39ZM169.292 39C168.764 39 168.338 38.8533 168.016 38.56C167.722 38.2373 167.576 37.812 167.576 37.284V16.648C167.576 16.12 167.722 15.7093 168.016 15.416C168.338 15.0933 168.764 14.932 169.292 14.932C169.79 14.932 170.186 15.0933 170.48 15.416C170.802 15.7093 170.964 16.12 170.964 16.648V37.284C170.964 37.812 170.802 38.2373 170.48 38.56C170.186 38.8533 169.79 39 169.292 39ZM169.248 10.356C168.602 10.356 168.045 10.1213 167.576 9.652C167.106 9.18267 166.872 8.61067 166.872 7.936C166.872 7.20267 167.106 6.63067 167.576 6.22C168.074 5.78 168.646 5.56 169.292 5.56C169.908 5.56 170.45 5.78 170.92 6.22C171.418 6.63067 171.668 7.20267 171.668 7.936C171.668 8.61067 171.433 9.18267 170.964 9.652C170.494 10.1213 169.922 10.356 169.248 10.356Z" fill="#C5C69A"/>
</svg>
