<svg width="74" height="94" viewBox="0 0 74 94" fill="none" xmlns="http://www.w3.org/2000/svg">
<path d="M0 79.3506V14.6494V12C0 5.37258 5.37258 0 12 0H14.6493H42.6595H43.7757C47.0084 0 50.1044 1.3043 52.3626 3.61756L53.1422 4.41624L69.6905 21.3681L70.444 22.14C72.6322 24.3816 73.8571 27.3899 73.8571 30.5224V31.6012V79.3506V82C73.8571 88.6274 68.4845 94 61.8571 94H59.2078H14.6493H12C5.37258 94 0 88.6274 0 82V79.3506Z" fill="#C5C69A"/>
<path d="M33.5516 51.8406V55.801C34.4536 57.1211 36.7086 58.9693 38.5126 55.801V51.8406C37.7609 50.5204 35.7164 48.6722 33.5516 51.8406Z" fill="#1E1E1E"/>
<path fill-rule="evenodd" clip-rule="evenodd" d="M19.5707 42.1595V62.4017C19.4204 63.7219 19.5707 65.9221 22.7277 65.9221H49.3365C50.3889 65.7754 52.4935 64.954 52.4935 62.8418V42.1595C52.3432 41.1327 51.5013 39.0791 49.3365 39.0791H47.2344H41.6696H30.8456H24.9827H22.7277C21.6753 39.0791 19.5707 39.6952 19.5707 42.1595ZM24.9827 60.2015V44.3597H46.6305V60.2015H24.9827Z" fill="#1E1E1E"/>
<path d="M35.8066 28.0779C27.1474 28.0779 24.9827 35.4121 24.9827 39.0791H30.8456C30.6953 37.319 31.477 33.7986 35.8066 33.7986C40.1362 33.7986 41.5192 37.319 41.6696 39.0791H47.2344C47.0331 35.4121 44.4658 28.0779 35.8066 28.0779Z" fill="#1E1E1E"/>
</svg>
