<svg width="272" height="94" viewBox="0 0 272 94" fill="none" xmlns="http://www.w3.org/2000/svg">
<path d="M0 79.3506V14.6494V12C0 5.37258 5.37258 0 12 0H14.6493H42.6595H43.7757C47.0084 0 50.1044 1.3043 52.3626 3.61756L53.1422 4.41624L69.6905 21.3681L70.444 22.14C72.6322 24.3816 73.8571 27.3899 73.8571 30.5224V31.6012V79.3506V82C73.8571 88.6274 68.4845 94 61.8571 94H59.2078H14.6493H12C5.37258 94 0 88.6274 0 82V79.3506Z" fill="#C5C69A"/>
<path d="M33.5516 51.8405V55.801C34.4536 57.1211 36.7086 58.9693 38.5126 55.801V51.8405C37.7609 50.5204 35.7164 48.6722 33.5516 51.8405Z" fill="#1E1E1E"/>
<path fill-rule="evenodd" clip-rule="evenodd" d="M19.5707 42.1595V62.4017C19.4204 63.7218 19.5707 65.9221 22.7277 65.9221H49.3365C50.3889 65.7754 52.4935 64.954 52.4935 62.8417V42.1595C52.3432 41.1327 51.5013 39.0791 49.3365 39.0791H47.2344H41.6696H30.8456H24.9827H22.7277C21.6753 39.0791 19.5707 39.6952 19.5707 42.1595ZM24.9827 60.2015V44.3597H46.6305V60.2015H24.9827Z" fill="#1E1E1E"/>
<path d="M35.8066 28.0779C27.1474 28.0779 24.9827 35.4121 24.9827 39.0791H30.8456C30.6953 37.3189 31.477 33.7986 35.8066 33.7986C40.1362 33.7986 41.5192 37.3189 41.6696 39.0791H47.2344C47.0331 35.4121 44.4658 28.0779 35.8066 28.0779Z" fill="#1E1E1E"/>
<path d="M99.916 72.22C97.5987 72.22 95.516 71.692 93.668 70.636C91.82 69.5507 90.3533 68.084 89.268 66.236C88.212 64.388 87.684 62.2907 87.684 59.944C87.684 57.6267 88.1973 55.544 89.224 53.696C90.28 51.848 91.7027 50.396 93.492 49.34C95.2813 48.2547 97.3053 47.712 99.564 47.712C101.529 47.712 103.304 48.1373 104.888 48.988C106.472 49.8093 107.748 50.9093 108.716 52.288V39.352C108.716 38.824 108.877 38.4133 109.2 38.12C109.523 37.7973 109.933 37.636 110.432 37.636C110.931 37.636 111.341 37.7973 111.664 38.12C111.987 38.4133 112.148 38.824 112.148 39.352V60.12C112.089 62.408 111.517 64.476 110.432 66.324C109.376 68.1427 107.924 69.58 106.076 70.636C104.257 71.692 102.204 72.22 99.916 72.22ZM99.916 69.14C101.617 69.14 103.128 68.744 104.448 67.952C105.797 67.1307 106.853 66.0307 107.616 64.652C108.408 63.2733 108.804 61.704 108.804 59.944C108.804 58.2133 108.408 56.6587 107.616 55.28C106.853 53.872 105.797 52.772 104.448 51.98C103.128 51.188 101.617 50.792 99.916 50.792C98.244 50.792 96.7333 51.188 95.384 51.98C94.0347 52.772 92.964 53.872 92.172 55.28C91.38 56.6587 90.984 58.2133 90.984 59.944C90.984 61.704 91.38 63.2733 92.172 64.652C92.964 66.0307 94.0347 67.1307 95.384 67.952C96.7333 68.744 98.244 69.14 99.916 69.14ZM131.905 72.22C129.559 72.22 127.461 71.692 125.613 70.636C123.765 69.58 122.313 68.128 121.257 66.28C120.201 64.432 119.673 62.3347 119.673 59.988C119.673 57.612 120.201 55.5 121.257 53.652C122.313 51.804 123.765 50.352 125.613 49.296C127.461 48.24 129.559 47.712 131.905 47.712C134.252 47.712 136.335 48.24 138.153 49.296C140.001 50.352 141.453 51.804 142.509 53.652C143.565 55.5 144.108 57.612 144.137 59.988C144.137 62.3347 143.595 64.432 142.509 66.28C141.453 68.128 140.001 69.58 138.153 70.636C136.335 71.692 134.252 72.22 131.905 72.22ZM131.905 69.14C133.607 69.14 135.132 68.744 136.481 67.952C137.831 67.16 138.887 66.0747 139.649 64.696C140.412 63.3173 140.793 61.748 140.793 59.988C140.793 58.228 140.412 56.6587 139.649 55.28C138.887 53.872 137.831 52.772 136.481 51.98C135.132 51.188 133.607 50.792 131.905 50.792C130.204 50.792 128.679 51.188 127.329 51.98C125.98 52.772 124.909 53.872 124.117 55.28C123.355 56.6587 122.973 58.228 122.973 59.988C122.973 61.748 123.355 63.3173 124.117 64.696C124.909 66.0747 125.98 67.16 127.329 67.952C128.679 68.744 130.204 69.14 131.905 69.14ZM162.343 72.22C160.025 72.22 157.957 71.692 156.139 70.636C154.349 69.5507 152.927 68.084 151.871 66.236C150.844 64.388 150.331 62.3053 150.331 59.988C150.331 57.6413 150.829 55.544 151.827 53.696C152.824 51.848 154.188 50.396 155.919 49.34C157.649 48.2547 159.644 47.712 161.903 47.712C163.692 47.712 165.335 48.064 166.831 48.768C168.356 49.472 169.691 50.528 170.835 51.936C171.157 52.288 171.275 52.6693 171.187 53.08C171.099 53.4613 170.849 53.7987 170.439 54.092C170.116 54.3267 169.749 54.4147 169.339 54.356C168.957 54.268 168.62 54.048 168.327 53.696C166.625 51.76 164.484 50.792 161.903 50.792C160.26 50.792 158.808 51.188 157.547 51.98C156.315 52.772 155.347 53.8573 154.643 55.236C153.968 56.6147 153.631 58.1987 153.631 59.988C153.631 61.748 153.997 63.3173 154.731 64.696C155.464 66.0747 156.491 67.16 157.811 67.952C159.131 68.744 160.641 69.14 162.343 69.14C163.487 69.14 164.528 68.9933 165.467 68.7C166.435 68.3773 167.285 67.8933 168.019 67.248C168.371 66.9547 168.737 66.7933 169.119 66.764C169.5 66.7347 169.852 66.852 170.175 67.116C170.527 67.4387 170.717 67.8053 170.747 68.216C170.805 68.6267 170.673 68.9787 170.351 69.272C168.209 71.2373 165.54 72.22 162.343 72.22ZM189.611 72.22C187.264 72.22 185.167 71.692 183.319 70.636C181.471 69.58 180.019 68.128 178.963 66.28C177.907 64.432 177.379 62.3347 177.379 59.988C177.379 57.612 177.907 55.5 178.963 53.652C180.019 51.804 181.471 50.352 183.319 49.296C185.167 48.24 187.264 47.712 189.611 47.712C191.957 47.712 194.04 48.24 195.859 49.296C197.707 50.352 199.159 51.804 200.215 53.652C201.271 55.5 201.813 57.612 201.843 59.988C201.843 62.3347 201.3 64.432 200.215 66.28C199.159 68.128 197.707 69.58 195.859 70.636C194.04 71.692 191.957 72.22 189.611 72.22ZM189.611 69.14C191.312 69.14 192.837 68.744 194.187 67.952C195.536 67.16 196.592 66.0747 197.355 64.696C198.117 63.3173 198.499 61.748 198.499 59.988C198.499 58.228 198.117 56.6587 197.355 55.28C196.592 53.872 195.536 52.772 194.187 51.98C192.837 51.188 191.312 50.792 189.611 50.792C187.909 50.792 186.384 51.188 185.035 51.98C183.685 52.772 182.615 53.872 181.823 55.28C181.06 56.6587 180.679 58.228 180.679 59.988C180.679 61.748 181.06 63.3173 181.823 64.696C182.615 66.0747 183.685 67.16 185.035 67.952C186.384 68.744 187.909 69.14 189.611 69.14ZM241.828 72C241.329 72 240.919 71.8533 240.596 71.56C240.273 71.2373 240.112 70.8267 240.112 70.328V57.656C240.112 55.5733 239.569 53.9307 238.484 52.728C237.399 51.496 236.005 50.88 234.304 50.88C232.485 50.88 230.989 51.496 229.816 52.728C228.672 53.9307 228.115 55.544 228.144 57.568H225.108C225.137 55.6027 225.563 53.872 226.384 52.376C227.205 50.88 228.335 49.7213 229.772 48.9C231.209 48.0787 232.837 47.668 234.656 47.668C236.387 47.668 237.912 48.0787 239.232 48.9C240.581 49.7213 241.623 50.88 242.356 52.376C243.119 53.872 243.5 55.632 243.5 57.656V70.328C243.5 70.8267 243.339 71.2373 243.016 71.56C242.723 71.8533 242.327 72 241.828 72ZM211.028 72C210.5 72 210.075 71.8533 209.752 71.56C209.459 71.2373 209.312 70.8267 209.312 70.328V49.648C209.312 49.1493 209.459 48.7387 209.752 48.416C210.075 48.0933 210.5 47.932 211.028 47.932C211.527 47.932 211.923 48.0933 212.216 48.416C212.539 48.7387 212.7 49.1493 212.7 49.648V70.328C212.7 70.8267 212.539 71.2373 212.216 71.56C211.923 71.8533 211.527 72 211.028 72ZM226.472 72C225.973 72 225.563 71.8533 225.24 71.56C224.917 71.2373 224.756 70.8267 224.756 70.328V57.656C224.756 55.5733 224.213 53.9307 223.128 52.728C222.043 51.496 220.649 50.88 218.948 50.88C217.129 50.88 215.633 51.4813 214.46 52.684C213.287 53.8573 212.7 55.3973 212.7 57.304H210.28C210.339 55.4267 210.749 53.7693 211.512 52.332C212.304 50.8653 213.375 49.7213 214.724 48.9C216.073 48.0787 217.599 47.668 219.3 47.668C221.031 47.668 222.556 48.0787 223.876 48.9C225.225 49.7213 226.267 50.88 227 52.376C227.763 53.872 228.144 55.632 228.144 57.656V70.328C228.144 70.8267 227.983 71.2373 227.66 71.56C227.367 71.8533 226.971 72 226.472 72ZM254.292 72C253.764 72 253.338 71.8533 253.016 71.56C252.722 71.2373 252.576 70.812 252.576 70.284V49.648C252.576 49.12 252.722 48.7093 253.016 48.416C253.338 48.0933 253.764 47.932 254.292 47.932C254.79 47.932 255.186 48.0933 255.48 48.416C255.802 48.7093 255.964 49.12 255.964 49.648V70.284C255.964 70.812 255.802 71.2373 255.48 71.56C255.186 71.8533 254.79 72 254.292 72ZM254.248 43.356C253.602 43.356 253.045 43.1213 252.576 42.652C252.106 42.1827 251.872 41.6107 251.872 40.936C251.872 40.2027 252.106 39.6307 252.576 39.22C253.074 38.78 253.646 38.56 254.292 38.56C254.908 38.56 255.45 38.78 255.92 39.22C256.418 39.6307 256.668 40.2027 256.668 40.936C256.668 41.6107 256.433 42.1827 255.964 42.652C255.494 43.1213 254.922 43.356 254.248 43.356Z" fill="#181818"/>
</svg>
